<svg xmlns="http://www.w3.org/2000/svg" width="369.558" height="80.51" viewBox="0 0 97.779 21.302"><defs><path id="a" d="M12.433 9.903h154.954v146.443H12.433z"/></defs><g style="font-style:normal;font-weight:400;font-size:10.5833px;line-height:1.25;font-family:sans-serif;white-space:pre;shape-inside:url(#a);fill:#000;fill-opacity:1;stroke:none"><path d="M15.344 13.193h1.132l-.941-1.767h-1.588zm6.35 0h1.132l-.942-1.767h-1.587zm6.35 0h1.132l-.942-1.767h-1.587zm5.704 5.631c.381.37.847.571 1.313.571 1.174 0 2.275-1.037 2.275-2.836 0-1.62-.794-2.667-2.106-2.667-.56 0-1.143.275-1.566.656h-.032l-.117-.53h-1.27v7.197h1.556v-1.534zm.053-1.048v-2.127c.328-.34.635-.487.974-.487.656 0 .963.476.963 1.418 0 1.08-.455 1.545-1.037 1.545-.265 0-.603-.095-.9-.35zm5.017 2.254-.275 1.185c.222.064.497.106.804.106 1.323 0 1.947-.677 2.455-2l2.075-5.302h-1.472l-.772 2.254c-.159.519-.339 1.058-.476 1.577h-.043a24.99 24.99 0 0 0-.529-1.577l-.878-2.254h-1.545l2.275 5.111-.106.276c-.17.412-.497.688-1.1.688-.138 0-.276-.022-.413-.064zm7.207-2.942c0 1.376.593 2.307 2.265 2.307.677 0 1.249-.148 1.714-.286l-.275-1.122a3.132 3.132 0 0 1-1.048.191c-.762 0-1.1-.307-1.1-1.1v-1.842h2.222v-1.217h-2.222v-1.397H46.3l-.202 1.397-1.397.063v1.154h1.323zm5.09-.445c0 1.736 1.281 2.752 2.91 2.752a4.02 4.02 0 0 0 2.075-.614l-.508-.931c-.465.233-.878.36-1.354.36-.773 0-1.419-.328-1.524-1.112h3.534a4.35 4.35 0 0 0 .064-.687c0-1.43-.847-2.52-2.466-2.52-1.397 0-2.73 1.038-2.73 2.752zm1.577-.571c.138-.677.625-.995 1.186-.995.709 0 1.026.402 1.026.995zm4.752 2.518c.667.445 1.63.805 2.572.805 1.683 0 2.582-.74 2.582-1.693 0-.91-.9-1.302-1.936-1.577-.741-.19-1.345-.35-1.345-.667 0-.265.254-.413.91-.413.551 0 1.059.212 1.535.498l.699-.932c-.55-.349-1.334-.72-2.265-.72-1.503 0-2.424.667-2.424 1.641 0 .836.953 1.28 1.874 1.535.846.233 1.407.412 1.407.73 0 .275-.296.444-1.005.444-.699 0-1.302-.243-1.905-.624zm7.631-1.502c0 1.376.592 2.307 2.265 2.307.677 0 1.248-.148 1.714-.286l-.275-1.122a3.132 3.132 0 0 1-1.048.191c-.762 0-1.1-.307-1.1-1.1v-1.842h2.222v-1.217h-2.222v-1.397H65.35l-.201 1.397-1.397.063v1.154h1.323zm5.249-.762h4.868v-1.1h-4.868zm-38.131 13.65c0 1.746 1.27 2.752 2.92 2.752.72 0 1.535-.244 2.17-.773l-.635-.984c-.37.264-.836.497-1.386.497-.868 0-1.471-.582-1.471-1.492s.624-1.492 1.524-1.492c.391 0 .762.127 1.164.412l.72-.963c-.445-.412-1.144-.709-1.969-.709-1.62 0-3.037 1.006-3.037 2.752zm6.137 0c0 1.746 1.292 2.752 2.678 2.752 1.387 0 2.678-1.006 2.678-2.752 0-1.746-1.291-2.752-2.678-2.752-1.386 0-2.677 1.006-2.677 2.752zm1.599 0c0-.91.36-1.492 1.08-1.492.72 0 1.079.582 1.079 1.492s-.36 1.492-1.08 1.492c-.72 0-1.08-.582-1.08-1.492zm4.751 0c0 1.714.88 2.752 2.213 2.752.529 0 1.069-.286 1.46-.667h.032l.116.54h1.27v-7.42h-1.555v1.79l.053.814c-.37-.339-.741-.56-1.345-.56-1.143 0-2.243 1.036-2.243 2.75zm1.599-.021c0-.995.487-1.46 1.058-1.46.307 0 .593.094.879.348v2.128c-.276.349-.572.487-.921.487-.646 0-1.016-.466-1.016-1.503zm4.836.021c0 1.736 1.281 2.752 2.91 2.752a4.02 4.02 0 0 0 2.075-.614l-.508-.932c-.465.233-.878.36-1.354.36-.773 0-1.419-.328-1.524-1.111h3.534c.022-.127.064-.413.064-.688 0-1.429-.847-2.519-2.466-2.519-1.397 0-2.73 1.037-2.73 2.752zm1.577-.572c.138-.677.625-.994 1.186-.994.709 0 1.026.402 1.026.994zm4.953 3.196h1.217l.127-.571h.043c.434.455.942.699 1.428.699 1.175 0 2.276-1.038 2.276-2.847 0-1.61-.804-2.657-2.117-2.657-.508 0-1.048.222-1.46.603l.042-.825v-1.82h-1.556zm1.556-1.492v-2.127c.328-.339.635-.487.974-.487.656 0 .963.476.963 1.418 0 1.08-.455 1.546-1.027 1.546-.275 0-.614-.096-.91-.35zm4.689-4.698h1.523v4.137c0 1.334.678 2.18 2 2.18.657 0 1.027-.116 1.578-.285l-.35-1.143c-.328.127-.582.17-.825.17-.434 0-.847-.213-.847-.858v-5.43h-3.08zm6.19 3.566c0 1.746 1.292 2.752 2.678 2.752 1.387 0 2.678-1.006 2.678-2.752 0-1.746-1.291-2.752-2.678-2.752-1.386 0-2.677 1.006-2.677 2.752zm1.599 0c0-.91.36-1.492 1.08-1.492.719 0 1.079.582 1.079 1.492s-.36 1.492-1.08 1.492c-.72 0-1.08-.582-1.08-1.492zm4.963 0c0 1.746 1.27 2.752 2.921 2.752.72 0 1.535-.244 2.17-.773l-.635-.984c-.37.264-.836.497-1.387.497-.867 0-1.47-.582-1.47-1.492s.624-1.492 1.523-1.492c.392 0 .762.127 1.165.412l.72-.963c-.445-.412-1.144-.709-1.97-.709-1.619 0-3.037 1.006-3.037 2.752zm6.446 2.624h1.555v-1.322l.773-.815 1.376 2.138h1.682l-2.148-3.09 1.99-2.16h-1.704l-1.926 2.117h-.043v-4.286h-1.555zm6.106-.677c.667.445 1.63.805 2.572.805 1.683 0 2.582-.741 2.582-1.694 0-.91-.9-1.302-1.937-1.577-.74-.19-1.344-.349-1.344-.666 0-.265.254-.413.91-.413.55 0 1.059.211 1.535.497l.699-.931c-.55-.35-1.334-.72-2.265-.72-1.503 0-2.424.667-2.424 1.64 0 .837.953 1.281 1.873 1.535.847.233 1.408.413 1.408.73 0 .276-.296.445-1.005.445-.699 0-1.302-.243-1.905-.624zm8.7-5.397h1.132l-.942-1.768h-1.587zm6.349 0h1.133l-.942-1.768h-1.588zm6.35 0h1.133l-.942-1.768h-1.588z" style="font-style:normal;font-variant:normal;font-weight:700;font-stretch:normal;font-family:'Source Code Pro';-inkscape-font-specification:'Source Code Pro Bold';fill:#50fa7b;fill-opacity:1" aria-label="```pytest- codeblocks```" transform="translate(-13.947 -11.426)"/></g></svg>